<?xml version="1.0" encoding="utf-8"?>
<svg width="100%" height="130" xmlns="http://www.w3.org/2000/svg" fill="none" viewBox="0 924.692 2688 135">
  <mask height="1055" width="1920" y="0" x="384" maskUnits="userSpaceOnUse" mask-type="alpha" id="mask0">
    <path id="svg_1" fill="#011DAA" d="m2304,0l-1920,0l0,666l0,148.5l0,176.864c0,0 368.829,-141.807 962.82,0c593.98,141.806 957.18,0.425 957.18,0.425l0,-177.289l0,-148.5l0,-666z" clip-rule="evenodd" fill-rule="evenodd" />
  </mask>
  <g>
    <title>Layer 1</title>
    <path id="svg_2" fill="#011DAA" d="m-0.37305,-1.49976l2690.86305,0l0,992.25376c0,0 -28.15,-35.67 -149.2,-39.454c-121.05,-3.784 -185.07,23.326 -237.29,40.7c-328,111.78 -702.13,63.39 -1048,-20.494c-301.292,-67.986 -680.001,-49.219 -872.001,20.494c-192,69.71 -339.1552,48 -384.37204,14.89l-0.00001,-1008.38976z" />
    <path id="svg_3" fill="url(#paint0_linear)" d="m-0.37305,-1.49976l2690.86305,0l0,992.25376c0,0 -28.15,-35.67 -149.2,-39.454c-121.05,-3.784 -185.07,23.326 -237.29,40.7c-328,111.78 -702.13,63.39 -1048,-20.494c-301.292,-67.986 -680.001,-49.219 -872.001,20.494c-192,69.71 -339.1552,48 -384.37204,14.89l-0.00001,-1008.38976z" />
  </g>
</svg>